<svg width="505" height="491" viewBox="0 0 505 491" fill="none" xmlns="http://www.w3.org/2000/svg">
<rect width="505" height="491" fill="white"/>
<path d="M108 314C108.869 309.657 113.795 304.651 116.556 301.389C121.514 295.529 127.585 289.174 130.5 282C133.739 274.026 139.272 266.534 143 258.611C145.543 253.207 148.578 249.198 152 244.444C155.801 239.165 160.049 232.671 165.556 229C171.773 224.855 178.149 220.303 182.444 214.056C190.298 202.631 200.346 192.542 206.944 180.444C212.522 170.218 226.121 161.945 236.389 157.056C252.73 149.274 269.546 143.263 287.833 141.111C301.688 139.481 316.071 139 330.056 139C335.78 139 342.021 139.171 346.944 142.556C351.241 145.51 355.584 149.067 360.556 151.056C372.833 155.967 385.354 161.709 391.5 174C394.165 179.33 398 185.516 398 191.5C398 194.285 398.706 197.042 400 199.5C401.517 202.383 400.546 205.417 401.556 208.444C404.252 216.533 406.646 230.767 403.444 239C398.458 251.823 387.981 260.388 375.556 266C362.808 271.757 350.894 277.826 337.111 280.889C325.76 283.411 312.572 282 300.889 282C289.611 282 280.381 278.207 270 274.5C266.525 273.259 261.647 271.518 257.944 271.056C252.501 270.375 248.96 266.213 244 265.111C227.97 261.549 212.771 249.117 201 238C199.017 236.127 194.316 233.162 191.778 232.222C186.596 230.303 184.173 226.444 180.778 222.778C172.561 213.903 169.487 203.337 163 193.778C160.072 189.463 157.577 185.08 155.778 180.222C153.728 174.687 152.593 168.338 150 163C145.616 153.975 139.183 145.811 134.778 137C131.082 129.608 128.933 121.8 124.778 115C123.132 112.307 118 110.29 118 114.222C118 118.213 118.142 122.235 118 126.222C117.819 131.282 115 135.715 115 141C115 146 115 151 115 156C115 163.449 113.863 171.918 115.222 179.222C116.658 186.942 119 194.171 119 202C119 210.121 123 217.681 123 226C123 240.669 123.516 255.598 122 270C121.066 278.87 112 282.808 112 291.222C112 295.539 109.111 298.215 109 302C108.902 305.327 109 308.671 109 312" stroke="black" stroke-width="3" stroke-linecap="round"/>
<path d="M354 172C353.345 177.894 343.145 179.563 342.056 185.556C340.885 191.994 338.825 197.42 341 203.944C342.582 208.689 349.737 209.979 353.778 211.222C361.664 213.649 370.679 214.615 378 210.222C383.719 206.791 386 203.255 386 196.944C386 194.162 386.866 189.584 385.778 187C384.838 184.769 382.321 179.972 380.5 178.556C376.854 175.72 376.571 171 371 171C365.667 171 360.333 171 355 171" stroke="black" stroke-width="3" stroke-linecap="round"/>
<path d="M372 195C369.982 195.252 371.007 198.117 373 198C374.663 197.902 375.328 195 373 195" stroke="black" stroke-width="3" stroke-linecap="round"/>
</svg>
