<svg width="514" height="389" viewBox="0 0 514 389" fill="none" xmlns="http://www.w3.org/2000/svg">
<rect width="514" height="389" fill="#F5F5F5"/>
<rect width="514" height="389" fill="white"/>
<path d="M11 191C11 184.867 10.9621 171.988 15 167C20.8151 159.817 27.4473 158.219 32.4445 167.5C34.6849 171.661 33 179.609 33 184.222C33 191.383 32 198.411 32 205.611C32 212.262 31.3792 218.919 31 225.556C30.8988 227.326 29.3915 230.013 28.7778 231.778C28.1303 233.639 28 227.434 28 226.778C28 216.593 28 206.407 28 196.222C28 191.597 31.3082 185.803 34.5556 182.556C38.0494 179.062 43.41 180 47.9445 180C60.0273 180 56 197.598 56 206C56 210.346 56.6586 214.614 54.5 218.5C53.0525 221.105 54 219.28 54 216.611C54 213.476 54.4705 210.692 54.9445 207.611C55.5438 203.716 57.4192 199.651 58.2222 195.556C59.1537 190.805 62.3787 185.784 67 184.5C72.6283 182.937 74.5977 184.22 78 188C80.5849 190.872 82.8617 198.35 83 202.222C83.0921 204.802 84.3421 206.428 84.8889 208.889C85.2883 210.686 84.362 213.029 85.6111 214.556C87.9957 217.47 90.8584 220.002 93 223C96.7406 228.237 96.6573 218.917 97.4445 216.556C100.006 208.872 102.366 209 110 209C116.049 209 110.504 209 107.5 209C102.503 209 99.5612 208.802 97.2222 214C96.1915 216.291 97 220.557 97 223C97 228.882 103.146 228 107.444 228C114.319 228 116.148 226.721 118.778 220C119.239 218.821 119.328 208.444 118.556 208.444C116.693 208.444 116.155 214.51 117.222 215.444C121.726 219.386 128.461 213.214 132 211.444C135.328 209.781 138 203.167 138 209.444C138 214.907 137.912 218.491 136.111 223.444C134.338 228.321 137.219 219.144 138 217.778C141.035 212.467 139.947 207.808 147.444 208C157.243 208.251 155 215.372 155 222C155 225.523 162.768 224.365 165.5 223.944C170.474 223.179 173.528 214.833 175.444 211C177.56 206.768 178 203.754 178 209.778C178 213.476 177 216.794 177 220.5C177 225.371 190.697 223.447 194.778 222.778C200.977 221.762 205.897 216.298 208 210.778C210.45 204.347 212 195.721 212 188.889C212 186.463 212.623 183.04 211.944 180.667C210.795 176.645 208.342 188.217 206.556 192C202.993 199.545 204.232 207.408 202.778 215.222C202.246 218.08 201.95 220.971 201.222 223.778C200.498 226.57 203.862 219.426 204.222 218.778C206.779 214.175 206.274 212 212 212C215.61 212 220.724 210.773 218.778 216.222C217.38 220.136 211.455 223 207.5 223C206.394 223 203.544 221.585 206.056 221.167C207.466 220.932 210.427 222.667 211.444 223.5C214.694 226.159 215.7 227.215 220 227C224.597 226.77 224.589 221.695 227 219C230.416 215.182 232.07 215 237.056 215C242.174 215 243.41 215.374 238 213.056C228.241 208.873 224.204 218.407 225.056 226.5C225.549 231.19 231.484 230.391 235 230C238.779 229.58 238.987 221.793 239.778 219.222C241.04 215.12 243.524 216.278 244.056 220C244.92 226.052 251.153 225.483 255.444 226.056C259.22 226.559 264.607 229.12 265.778 224C266.488 220.894 266 217.196 266 214" stroke="black" stroke-width="3" stroke-linecap="round"/>
<path d="M178 197C178 203.616 184.453 196 178 196" stroke="black" stroke-width="3" stroke-linecap="round"/>
</svg>
